<?xml version="1.0" encoding="iso-8859-1"?>
<!-- Generator: Adobe Illustrator 18.0.0, SVG Export Plug-In . SVG Version: 6.00 Build 0)  -->
<!DOCTYPE svg PUBLIC "-//W3C//DTD SVG 1.1//EN" "http://www.w3.org/Graphics/SVG/1.1/DTD/svg11.dtd">
<svg version="1.1" id="Capa_1" xmlns="http://www.w3.org/2000/svg" xmlns:xlink="http://www.w3.org/1999/xlink" x="0px" y="0px"
	 viewBox="0 0 395 395" style="enable-background:new 0 0 395 395;" xml:space="preserve">
<g>
	<path d="M344.208,67.561l-53.48-0.035c-0.003,0-0.006,0-0.01,0c-3.975,0-7.789,1.578-10.601,4.388
		c-2.815,2.812-4.397,6.627-4.399,10.606l-0.017,42.518l-42.52,0.042c-8.271,0.008-14.975,6.711-14.985,14.982l-0.049,42.515
		l-42.512,0.008c-8.282,0.001-14.995,6.715-14.997,14.996l-0.01,42.468l-42.423-0.045c-0.006,0-0.011,0-0.016,0
		c-3.978,0-7.794,1.581-10.607,4.394c-2.817,2.817-4.397,6.64-4.393,10.624l0.05,42.449l-52.435-0.01c-0.001,0-0.002,0-0.003,0
		c-8.283,0-14.999,6.714-15,14.997c-0.001,8.284,6.713,15.001,14.997,15.003l67.456,0.013c0.001,0,0.002,0,0.003,0
		c3.981,0,7.798-1.582,10.612-4.398c2.814-2.817,4.393-6.638,4.388-10.619l-0.05-42.437l42.401,0.045c0.006,0,0.011,0,0.016,0
		c3.975,0,7.787-1.578,10.6-4.386c2.816-2.813,4.399-6.63,4.4-10.61l0.01-42.487l42.498-0.008
		c8.276-0.001,14.987-6.706,14.997-14.982l0.049-42.527l42.53-0.042c8.276-0.008,14.981-6.718,14.985-14.994l0.018-42.493
		l38.476,0.025c0.003,0,0.006,0,0.01,0c8.279,0,14.994-6.709,15-14.99C359.204,74.286,352.492,67.566,344.208,67.561z"/>
	<path d="M310.727,265.701l-18.305,3.473l28.398-41.706c3.108-4.565,1.928-10.785-2.638-13.894
		c-4.563-3.108-10.785-1.928-13.893,2.637l-28.397,41.705l-3.477-18.303c-1.03-5.426-6.267-8.988-11.69-7.958
		c-5.426,1.03-8.989,6.264-7.958,11.69l7.98,42.02c0.911,4.796,5.105,8.136,9.813,8.136c0.619,0,1.246-0.058,1.875-0.177
		l42.02-7.974c5.426-1.03,8.99-6.263,7.96-11.689C321.386,268.235,316.15,264.67,310.727,265.701z"/>
	<path d="M313.001,0H81.999C36.785,0,0,36.784,0,81.998v230.993C0,358.211,36.785,395,81.999,395h231.002
		C358.216,395,395,358.211,395,312.991V81.998C395,36.784,358.216,0,313.001,0z M380,312.991C380,349.94,349.945,380,313.001,380
		H81.999C45.056,380,15,349.94,15,312.991V81.998C15,45.055,45.056,15,81.999,15h231.002C349.945,15,380,45.055,380,81.998V312.991z
		"/>
</g>
<g>
</g>
<g>
</g>
<g>
</g>
<g>
</g>
<g>
</g>
<g>
</g>
<g>
</g>
<g>
</g>
<g>
</g>
<g>
</g>
<g>
</g>
<g>
</g>
<g>
</g>
<g>
</g>
<g>
</g>
</svg>
